<?xml version="1.0" encoding="utf-8"?>
<!-- Generator: Adobe Illustrator 16.0.0, SVG Export Plug-In . SVG Version: 6.00 Build 0)  -->
<!DOCTYPE svg PUBLIC "-//W3C//DTD SVG 1.1//EN" "http://www.w3.org/Graphics/SVG/1.1/DTD/svg11.dtd">
<svg version="1.1" id="Layer_1" xmlns="http://www.w3.org/2000/svg" xmlns:xlink="http://www.w3.org/1999/xlink" x="0px" y="0px"
	 width="533.078px" height="44.582px" viewBox="0 0 533.078 44.582" enable-background="new 0 0 533.078 44.582"
	 xml:space="preserve" preserveAspectRatio="xMinYMid">
<rect fill="#7A1416" width="111.204" height="43.877"/>
<g>
	<path fill="#FFFFFF" d="M20.874,8.628c-1.03-0.441-2.216,0.462-3.259,1.873c-0.831,1.124-1.494,3.806-0.319,4.412
		c1.67,0.863,3.244-1.25,3.856-2.303C21.883,11.354,22.252,9.22,20.874,8.628z"/>
	<path fill="#FFFFFF" d="M41.991,8.572c-1.031-0.443-2.217,0.461-3.26,1.872c-0.83,1.124-1.494,3.806-0.319,4.412
		c1.671,0.862,3.244-1.249,3.857-2.303C43,11.297,43.369,9.163,41.991,8.572z"/>
	<path fill="#FFFFFF" d="M74.619,7.989c-1.03-0.442-2.216,0.462-3.26,1.873c-0.831,1.123-1.493,3.805-0.319,4.411
		c1.671,0.863,3.244-1.249,3.857-2.303C75.628,10.714,75.998,8.58,74.619,7.989z"/>
	<path fill="#FFFFFF" d="M31.105,11.757c-1.611-1.933-15.14,4.016-15.981,10.322c-1.023,7.67,11.904,17.119,13.43,14.26
		c0.646-1.211-10.455-6.53-7.547-13.872C24.043,14.797,32.566,13.509,31.105,11.757z"/>
	<path fill="#FFFFFF" d="M52.084,11.808c-1.611-1.932-15.14,4.016-15.982,10.321c-1.022,7.67,11.32,17.285,13.43,14.261
		c0.784-1.126-10.454-6.53-7.547-13.873C45.021,14.847,53.545,13.559,52.084,11.808z"/>
	<path fill="#FFFFFF" d="M59.017,10.592c-1.22,0.055-1.342,0.339-1.443,0.776c-0.221,0.971,5.806,7.706,6.827,12.208
		c1.125,4.966,0.799,12.182,1.054,12.762c0.305,0.694,0.999,0.333,1.998,0.444c0.999,0.111,1.859,0.833,2.442,0.333
		c0.332-0.333,4.06-12.684,11.319-18.866c7.552-6.431,15.482-9.877,15.649-10.543c0.103-0.412-1.443-1.221-2.886-1.332
		c-1.443-0.112-9.297,3.579-14.871,8.767c-5.808,5.405-8.879,12.208-9.877,12.098c-0.331-0.037-0.832-2.972-3.108-8.103
		C63.645,13.557,60.257,10.536,59.017,10.592z"/>
</g>
<g>
	<path fill="#FFFFFF" d="M139.815,27.573c-0.05,1.276-0.288,2.435-0.713,3.473c-0.426,1.039-0.989,1.884-1.689,2.534
		c-0.676,0.651-1.421,1.133-2.234,1.446s-1.783,0.469-2.91,0.469c-1.452,0-2.641-0.263-3.567-0.789
		c-0.926-0.525-1.69-1.164-2.291-1.915c-0.476-0.576-0.845-1.227-1.107-1.953c-0.263-0.726-0.464-1.545-0.601-2.459
		c-0.138-0.913-0.219-1.915-0.244-3.003s-0.038-2.272-0.038-3.548c0-1.277,0.013-2.459,0.038-3.548s0.106-2.09,0.244-3.004
		c0.137-0.913,0.338-1.733,0.601-2.459c0.263-0.726,0.632-1.376,1.107-1.953c0.601-0.751,1.364-1.389,2.291-1.915
		c0.926-0.525,2.115-0.789,3.567-0.789c1.126,0,2.096,0.157,2.91,0.47s1.559,0.795,2.234,1.445c0.7,0.651,1.264,1.49,1.689,2.516
		c0.425,1.027,0.663,2.178,0.713,3.455h-5.332c-0.025-0.375-0.063-0.745-0.113-1.108c-0.05-0.362-0.15-0.682-0.3-0.958
		c-0.15-0.325-0.363-0.575-0.638-0.75c-0.276-0.175-0.664-0.263-1.164-0.263c-0.501,0-0.889,0.101-1.164,0.3
		c-0.276,0.201-0.488,0.451-0.638,0.751c-0.15,0.301-0.276,0.727-0.375,1.277c-0.101,0.551-0.175,1.177-0.226,1.877
		s-0.082,1.452-0.094,2.252c-0.013,0.802-0.019,1.603-0.019,2.403c0,0.801,0.006,1.602,0.019,2.403
		c0.012,0.801,0.043,1.552,0.094,2.253c0.05,0.701,0.125,1.327,0.226,1.877c0.1,0.551,0.225,0.976,0.375,1.276
		c0.15,0.3,0.362,0.551,0.638,0.751c0.275,0.201,0.663,0.3,1.164,0.3c0.5,0,0.888-0.094,1.164-0.281
		c0.275-0.188,0.488-0.444,0.638-0.77c0.15-0.275,0.25-0.594,0.3-0.958c0.05-0.362,0.087-0.732,0.113-1.107H139.815z"/>
	<path fill="#FFFFFF" d="M152.769,35.195V24.006h-4.43v11.189h-5.332V8.462h5.332V19.2h4.43V8.462h5.332v26.733H152.769z"/>
	<path fill="#FFFFFF" d="M172.594,35.195l-3.267-10.4h-1.765v10.4h-5.332V8.462h7.622c1.452,0,2.66,0.188,3.624,0.563
		c0.963,0.375,1.727,0.908,2.291,1.596c0.563,0.689,0.957,1.54,1.183,2.553c0.225,1.014,0.338,2.159,0.338,3.436
		c0,0.727-0.038,1.421-0.113,2.084c-0.075,0.664-0.219,1.295-0.432,1.896c-0.213,0.601-0.52,1.158-0.92,1.671
		c-0.401,0.513-0.926,0.97-1.577,1.371l3.905,11.564H172.594z M171.956,16.609c0-0.375-0.019-0.763-0.057-1.164
		c-0.038-0.4-0.125-0.763-0.263-1.089c-0.138-0.325-0.351-0.588-0.638-0.788c-0.288-0.2-0.683-0.301-1.183-0.301h-2.252v6.721h2.252
		c0.5,0,0.895-0.106,1.183-0.319c0.287-0.212,0.5-0.481,0.638-0.807c0.137-0.325,0.225-0.688,0.263-1.089
		C171.937,17.374,171.956,16.985,171.956,16.609z"/>
	<path fill="#FFFFFF" d="M181.154,35.195V8.462h5.332v26.733H181.154z"/>
	<path fill="#FFFFFF" d="M204.847,27.573c0,1.352-0.113,2.51-0.338,3.473c-0.225,0.964-0.689,1.784-1.389,2.459
		c-0.601,0.576-1.396,1.051-2.384,1.427c-0.989,0.375-2.134,0.563-3.436,0.563c-1.327,0-2.472-0.175-3.436-0.525
		c-0.964-0.351-1.746-0.826-2.347-1.427c-0.651-0.651-1.108-1.458-1.371-2.422c-0.263-0.963-0.394-2.134-0.394-3.511h5.332
		c0,0.551,0.031,1.027,0.094,1.427c0.062,0.401,0.219,0.739,0.469,1.014c0.15,0.175,0.357,0.326,0.62,0.451
		c0.263,0.125,0.607,0.188,1.033,0.188c0.775,0,1.339-0.225,1.689-0.676c0.351-0.425,0.526-1.176,0.526-2.253
		c0-0.625-0.032-1.145-0.094-1.558c-0.063-0.413-0.182-0.751-0.357-1.014c-0.175-0.263-0.413-0.481-0.713-0.657
		c-0.3-0.175-0.689-0.362-1.164-0.563l-3.379-1.389c-0.676-0.275-1.258-0.588-1.746-0.939c-0.488-0.35-0.882-0.775-1.183-1.276
		c-0.301-0.5-0.526-1.114-0.676-1.84c-0.15-0.726-0.225-1.615-0.225-2.666c0-1.251,0.2-2.377,0.601-3.379
		c0.4-1.001,1.001-1.853,1.802-2.553c0.651-0.55,1.376-0.97,2.178-1.258c0.801-0.288,1.714-0.432,2.741-0.432
		c2.303,0,4.055,0.563,5.256,1.69c0.726,0.676,1.251,1.539,1.577,2.59c0.325,1.052,0.488,2.253,0.488,3.605h-5.332
		c0-0.476-0.019-0.92-0.056-1.333s-0.169-0.77-0.394-1.07c-0.15-0.2-0.345-0.362-0.582-0.488c-0.238-0.125-0.558-0.188-0.958-0.188
		c-0.375,0-0.689,0.069-0.939,0.207c-0.25,0.138-0.45,0.307-0.601,0.507c-0.3,0.401-0.451,1.039-0.451,1.915
		c0,0.426,0.025,0.783,0.075,1.07c0.05,0.288,0.137,0.532,0.263,0.732c0.125,0.201,0.313,0.382,0.563,0.544
		c0.25,0.163,0.563,0.319,0.938,0.469l3.342,1.352c0.851,0.351,1.552,0.72,2.103,1.108c0.55,0.388,0.995,0.876,1.333,1.464
		c0.338,0.588,0.576,1.295,0.713,2.121C204.777,25.358,204.847,26.372,204.847,27.573z"/>
	<path fill="#FFFFFF" d="M216.524,13.268v21.928h-5.332V13.268h-4.506V8.462h14.343v4.806H216.524z"/>
	<path fill="#FFFFFF" d="M223.883,17.736V8.462h5.332v5.332L223.883,17.736z"/>
	<path fill="#FFFFFF" d="M247.613,27.573c0,1.352-0.113,2.51-0.338,3.473c-0.225,0.964-0.689,1.784-1.389,2.459
		c-0.601,0.576-1.396,1.051-2.384,1.427c-0.989,0.375-2.134,0.563-3.436,0.563c-1.327,0-2.472-0.175-3.436-0.525
		c-0.964-0.351-1.746-0.826-2.347-1.427c-0.651-0.651-1.108-1.458-1.371-2.422c-0.263-0.963-0.394-2.134-0.394-3.511h5.332
		c0,0.551,0.031,1.027,0.094,1.427c0.062,0.401,0.219,0.739,0.469,1.014c0.15,0.175,0.357,0.326,0.62,0.451
		c0.263,0.125,0.607,0.188,1.033,0.188c0.775,0,1.339-0.225,1.689-0.676c0.351-0.425,0.526-1.176,0.526-2.253
		c0-0.625-0.032-1.145-0.094-1.558c-0.063-0.413-0.182-0.751-0.357-1.014c-0.175-0.263-0.413-0.481-0.713-0.657
		c-0.3-0.175-0.689-0.362-1.164-0.563l-3.379-1.389c-0.676-0.275-1.258-0.588-1.746-0.939c-0.488-0.35-0.882-0.775-1.183-1.276
		c-0.301-0.5-0.526-1.114-0.676-1.84c-0.15-0.726-0.225-1.615-0.225-2.666c0-1.251,0.2-2.377,0.601-3.379
		c0.4-1.001,1.001-1.853,1.802-2.553c0.651-0.55,1.376-0.97,2.178-1.258c0.801-0.288,1.714-0.432,2.741-0.432
		c2.303,0,4.055,0.563,5.256,1.69c0.726,0.676,1.251,1.539,1.577,2.59c0.325,1.052,0.488,2.253,0.488,3.605h-5.332
		c0-0.476-0.019-0.92-0.056-1.333s-0.169-0.77-0.394-1.07c-0.15-0.2-0.345-0.362-0.582-0.488c-0.238-0.125-0.558-0.188-0.958-0.188
		c-0.375,0-0.689,0.069-0.939,0.207c-0.25,0.138-0.45,0.307-0.601,0.507c-0.3,0.401-0.451,1.039-0.451,1.915
		c0,0.426,0.025,0.783,0.075,1.07c0.05,0.288,0.137,0.532,0.263,0.732c0.125,0.201,0.313,0.382,0.563,0.544
		c0.25,0.163,0.563,0.319,0.938,0.469l3.342,1.352c0.851,0.351,1.552,0.72,2.103,1.108c0.55,0.388,0.995,0.876,1.333,1.464
		c0.338,0.588,0.576,1.295,0.713,2.121C247.543,25.358,247.613,26.372,247.613,27.573z"/>
	<path fill="#FFFFFF" d="M271.942,27.573c-0.05,1.276-0.288,2.435-0.713,3.473c-0.426,1.039-0.989,1.884-1.689,2.534
		c-0.676,0.651-1.421,1.133-2.234,1.446s-1.783,0.469-2.91,0.469c-1.452,0-2.641-0.263-3.567-0.789
		c-0.926-0.525-1.69-1.164-2.291-1.915c-0.476-0.576-0.845-1.227-1.107-1.953c-0.263-0.726-0.464-1.545-0.601-2.459
		c-0.138-0.913-0.219-1.915-0.244-3.003s-0.038-2.272-0.038-3.548c0-1.277,0.013-2.459,0.038-3.548s0.106-2.09,0.244-3.004
		c0.137-0.913,0.338-1.733,0.601-2.459c0.263-0.726,0.632-1.376,1.107-1.953c0.601-0.751,1.364-1.389,2.291-1.915
		c0.926-0.525,2.115-0.789,3.567-0.789c1.126,0,2.096,0.157,2.91,0.47s1.559,0.795,2.234,1.445c0.7,0.651,1.264,1.49,1.689,2.516
		c0.425,1.027,0.663,2.178,0.713,3.455h-5.332c-0.025-0.375-0.063-0.745-0.113-1.108c-0.05-0.362-0.15-0.682-0.3-0.958
		c-0.15-0.325-0.363-0.575-0.638-0.75c-0.276-0.175-0.664-0.263-1.164-0.263c-0.501,0-0.889,0.101-1.164,0.3
		c-0.276,0.201-0.488,0.451-0.638,0.751c-0.15,0.301-0.276,0.727-0.375,1.277c-0.101,0.551-0.175,1.177-0.226,1.877
		s-0.082,1.452-0.094,2.252c-0.013,0.802-0.019,1.603-0.019,2.403c0,0.801,0.006,1.602,0.019,2.403
		c0.012,0.801,0.043,1.552,0.094,2.253c0.05,0.701,0.125,1.327,0.226,1.877c0.1,0.551,0.225,0.976,0.375,1.276
		c0.15,0.3,0.362,0.551,0.638,0.751c0.275,0.201,0.663,0.3,1.164,0.3c0.5,0,0.888-0.094,1.164-0.281
		c0.275-0.188,0.488-0.444,0.638-0.77c0.15-0.275,0.25-0.594,0.3-0.958c0.05-0.362,0.087-0.732,0.113-1.107H271.942z"/>
	<path fill="#FFFFFF" d="M284.896,35.195V24.006h-4.43v11.189h-5.332V8.462h5.332V19.2h4.43V8.462h5.332v26.733H284.896z"/>
	<path fill="#FFFFFF" d="M309.265,28.024c0,1.077-0.17,2.059-0.508,2.947c-0.338,0.889-0.832,1.659-1.482,2.309
		c-1.428,1.478-3.28,2.215-5.558,2.215c-2.278,0-4.13-0.738-5.557-2.215c-0.651-0.65-1.145-1.42-1.483-2.309
		c-0.338-0.888-0.507-1.871-0.507-2.947V8.462h5.332v19.825c0,0.876,0.219,1.496,0.657,1.858c0.438,0.363,0.958,0.544,1.558,0.544
		s1.12-0.181,1.558-0.544c0.438-0.362,0.657-0.982,0.657-1.858V8.462h5.333V28.024z"/>
	<path fill="#FFFFFF" d="M323.569,35.195l-3.267-10.4h-1.765v10.4h-5.331V8.462h7.622c1.451,0,2.659,0.188,3.623,0.563
		c0.963,0.375,1.728,0.908,2.29,1.596c0.563,0.689,0.958,1.54,1.183,2.553c0.226,1.014,0.338,2.159,0.338,3.436
		c0,0.727-0.037,1.421-0.112,2.084c-0.075,0.664-0.22,1.295-0.432,1.896c-0.213,0.601-0.52,1.158-0.92,1.671
		c-0.4,0.513-0.927,0.97-1.577,1.371l3.905,11.564H323.569z M322.931,16.609c0-0.375-0.019-0.763-0.057-1.164
		c-0.037-0.4-0.125-0.763-0.263-1.089c-0.138-0.325-0.351-0.588-0.639-0.788s-0.682-0.301-1.183-0.301h-2.253v6.721h2.253
		c0.501,0,0.895-0.106,1.183-0.319c0.288-0.212,0.501-0.481,0.639-0.807c0.138-0.325,0.226-0.688,0.263-1.089
		C322.913,17.374,322.931,16.985,322.931,16.609z"/>
	<path fill="#FFFFFF" d="M346.548,27.573c-0.051,1.276-0.288,2.435-0.713,3.473c-0.427,1.039-0.989,1.884-1.69,2.534
		c-0.676,0.651-1.421,1.133-2.233,1.446c-0.814,0.312-1.784,0.469-2.91,0.469c-1.452,0-2.642-0.263-3.567-0.789
		c-0.926-0.525-1.689-1.164-2.29-1.915c-0.476-0.576-0.845-1.227-1.107-1.953c-0.263-0.726-0.464-1.545-0.601-2.459
		c-0.139-0.913-0.22-1.915-0.244-3.003c-0.025-1.089-0.038-2.272-0.038-3.548c0-1.277,0.013-2.459,0.038-3.548
		c0.024-1.089,0.105-2.09,0.244-3.004c0.137-0.913,0.338-1.733,0.601-2.459s0.632-1.376,1.107-1.953
		c0.601-0.751,1.364-1.389,2.29-1.915c0.926-0.525,2.115-0.789,3.567-0.789c1.126,0,2.096,0.157,2.91,0.47
		c0.812,0.313,1.558,0.795,2.233,1.445c0.701,0.651,1.264,1.49,1.69,2.516c0.425,1.027,0.662,2.178,0.713,3.455h-5.332
		c-0.024-0.375-0.062-0.745-0.112-1.108c-0.051-0.362-0.15-0.682-0.301-0.958c-0.149-0.325-0.362-0.575-0.638-0.75
		c-0.276-0.175-0.664-0.263-1.164-0.263c-0.501,0-0.889,0.101-1.164,0.3c-0.275,0.201-0.488,0.451-0.639,0.751
		c-0.149,0.301-0.275,0.727-0.375,1.277c-0.101,0.551-0.176,1.177-0.226,1.877s-0.081,1.452-0.094,2.252
		c-0.013,0.802-0.019,1.603-0.019,2.403c0,0.801,0.006,1.602,0.019,2.403c0.013,0.801,0.044,1.552,0.094,2.253
		c0.05,0.701,0.125,1.327,0.226,1.877c0.1,0.551,0.226,0.976,0.375,1.276c0.15,0.3,0.363,0.551,0.639,0.751
		c0.275,0.201,0.663,0.3,1.164,0.3c0.5,0,0.888-0.094,1.164-0.281c0.275-0.188,0.488-0.444,0.638-0.77
		c0.15-0.275,0.25-0.594,0.301-0.958c0.05-0.362,0.088-0.732,0.112-1.107H346.548z"/>
	<path fill="#FFFFFF" d="M359.502,35.195V24.006h-4.431v11.189h-5.331V8.462h5.331V19.2h4.431V8.462h5.332v26.733H359.502z"/>
	<path fill="#FFFFFF" d="M387.925,21.829c0,2.303-0.025,4.167-0.075,5.594c-0.051,1.427-0.145,2.572-0.281,3.436
		c-0.138,0.864-0.326,1.534-0.563,2.009c-0.238,0.476-0.558,0.914-0.957,1.314c-0.427,0.426-0.945,0.751-1.559,0.976
		s-1.283,0.338-2.009,0.338c-0.727,0-1.396-0.113-2.009-0.338s-1.133-0.55-1.559-0.976c-0.4-0.4-0.72-0.838-0.957-1.314
		c-0.238-0.475-0.426-1.145-0.563-2.009c-0.138-0.863-0.231-2.009-0.281-3.436c-0.051-1.427-0.075-3.291-0.075-5.594
		c0-2.303,0.024-4.168,0.075-5.595c0.05-1.427,0.144-2.572,0.281-3.436c0.138-0.863,0.325-1.533,0.563-2.009
		c0.237-0.475,0.557-0.914,0.957-1.314c0.426-0.425,0.945-0.751,1.559-0.976c0.613-0.226,1.282-0.338,2.009-0.338
		c0.726,0,1.396,0.113,2.009,0.338c0.613,0.225,1.132,0.551,1.559,0.976c0.399,0.4,0.719,0.839,0.957,1.314
		c0.237,0.476,0.426,1.146,0.563,2.009c0.137,0.864,0.23,2.009,0.281,3.436C387.9,17.661,387.925,19.526,387.925,21.829z
		 M386.423,21.829c0-2.228-0.019-4.011-0.057-5.351c-0.037-1.339-0.106-2.403-0.206-3.191c-0.101-0.789-0.244-1.376-0.432-1.765
		c-0.188-0.388-0.432-0.745-0.732-1.07c-0.576-0.625-1.414-0.938-2.516-0.938s-1.94,0.313-2.516,0.938
		c-0.301,0.326-0.545,0.683-0.732,1.07c-0.188,0.388-0.332,0.976-0.432,1.765c-0.101,0.789-0.169,1.853-0.206,3.191
		c-0.038,1.339-0.057,3.123-0.057,5.351c0,2.228,0.019,4.012,0.057,5.351c0.037,1.339,0.105,2.403,0.206,3.191
		c0.1,0.789,0.244,1.377,0.432,1.765c0.188,0.388,0.432,0.745,0.732,1.07c0.575,0.626,1.414,0.939,2.516,0.939
		s1.939-0.313,2.516-0.939c0.301-0.325,0.545-0.682,0.732-1.07c0.188-0.388,0.331-0.976,0.432-1.765
		c0.1-0.789,0.169-1.852,0.206-3.191C386.405,25.84,386.423,24.057,386.423,21.829z"/>
	<path fill="#FFFFFF" d="M394.307,9.813v11.339h6.158v1.352h-6.158v12.691h-1.502V8.462h8.636v1.352H394.307z"/>
	<path fill="#FFFFFF" d="M417.474,9.813v25.382h-1.502V9.813h-4.468V8.462h10.438v1.352H417.474z"/>
	<path fill="#FFFFFF" d="M434.107,35.195V22.279h-7.134v12.916h-1.502V8.462h1.502v12.465h7.134V8.462h1.502v26.733H434.107z"/>
	<path fill="#FFFFFF" d="M441.015,35.195V8.462h8.636v1.352h-7.134v11.339h6.158v1.352h-6.158v11.339h7.134v1.352H441.015z"/>
	<path fill="#FFFFFF" d="M466.247,35.195h-1.427l-5.632-26.733h1.652l4.693,23.654l4.693-23.654h1.651L466.247,35.195z"/>
	<path fill="#FFFFFF" d="M482.879,35.195l-1.614-8.035h-6.233l-1.576,8.035h-1.652l5.744-26.733h1.353l5.632,26.733H482.879z
		 M478.149,11.541l-2.816,14.268h5.67L478.149,11.541z"/>
	<path fill="#FFFFFF" d="M487.384,35.195V8.462h1.502v25.382h7.134v1.352H487.384z"/>
	<path fill="#FFFFFF" d="M499.549,35.195V8.462h1.502v25.382h7.134v1.352H499.549z"/>
	<path fill="#FFFFFF" d="M511.714,35.195V8.462h8.636v1.352h-7.134v11.339h6.158v1.352h-6.158v11.339h7.134v1.352H511.714z"/>
	<path fill="#FFFFFF" d="M528.385,23.744v11.452h-1.502V23.744l-4.506-15.282h1.652l3.604,12.803l3.642-12.803h1.652L528.385,23.744
		z"/>
</g>
</svg>
